<svg width="237" height="197" viewBox="0 0 237 197" xmlns="http://www.w3.org/2000/svg"><g fill="none" fill-rule="evenodd"><path d="M145.59 8.515C121.851 22.22 110.88 49.54 116.834 74.914c14.226-.213 27.472-8.807 32.606-22.971l.004.007a28.39 28.39 0 0 1 12.568-15.047c13.637-7.874 31.075-3.2 38.948 10.436 7.873 13.637 3.2 31.074-10.436 38.947-6.079 3.51-12.897 4.544-19.302 3.385-14.701-2.613-28.653 4.401-36.007 16.412 19.01 17.2 47.66 21.047 71.057 7.54 29.025-16.759 38.97-53.872 22.212-82.897-16.758-29.024-53.871-38.969-82.896-22.21z" fill="#fff" fill-rule="nonzero"/><path d="M-.04-.13h237.014v197.367H-.04z"/><path d="M100.188 116.096c0 9.88-8.01 17.889-17.89 17.889s-17.89-8.009-17.89-17.89c0-9.88 8.01-17.89 17.89-17.89s17.89 8.01 17.89 17.89z" fill="#fff" fill-rule="nonzero"/><g><path d="M169.803 89.444c-5.969-.941-11.786.448-11.794.426-14.531 3.059-26.191 15.352-27.953 31.36l-.002-.002c-1.52 15.129-10.046 29.333-24.22 37.517-23.397 13.508-53.314 5.491-66.822-17.904-13.507-23.398-5.492-53.314 17.905-66.823 14.174-8.183 30.74-8.465 44.601-2.216l-.002-.003c14.824 6.513 31.407 2.497 41.307-8.69 0 0 3.96-4.252 6.128-9.892-7.806 6.67-18.098-1.529-18.098-1.529-25.247-19.57-60.792-23.069-90.166-6.11-38.759 22.378-52.04 71.94-29.661 110.698 22.377 38.76 72.039 52.06 110.798 29.683 29.233-16.878 43.86-49.14 39.947-80.705 0 0-2.08-13.165 8.032-15.81z" fill="#fff" fill-rule="nonzero"/><path d="M-.04-.13h237.014v197.367H-.04z"/></g></g></svg>