<?xml version="1.0" encoding="UTF-8" standalone="no"?>
<svg width="16px" height="16px" viewBox="0 0 16 16" version="1.1" xmlns="http://www.w3.org/2000/svg" xmlns:xlink="http://www.w3.org/1999/xlink">
    <!-- Generator: Sketch 46.2 (44496) - http://www.bohemiancoding.com/sketch -->
    <title>robot (4)</title>
    <desc>Created with Sketch.</desc>
    <defs></defs>
    <g id="cabeceras-y-hamburguer" stroke="none" stroke-width="1" fill="none" fill-rule="evenodd">
        <g id="New_hamburger_op1" transform="translate(-269.000000, -145.000000)" fill="blue">
            <g id="robot-(4)" transform="translate(269.000000, 145.000000)">
                <path d="M0,8.37001595 L15.5151515,8.37001595 C15.2790528,6.05891301 14.0548262,4.04061616 12.2791698,2.75656652 L13.307737,0.756861318 L11.8736126,0 L10.8718758,1.94751126 C9.91740724,1.52480894 8.86418882,1.28973996 7.75755154,1.28973996 C6.65091426,1.28973996 5.59774427,1.52480894 4.64327567,1.94751126 L3.64158732,0 L2.20741447,0.756812263 L3.23598175,2.75651747 C1.46037376,4.04066522 0.236098763,6.05891301 0,8.37001595 Z M9.64856945,5.12991958 C10.2822343,5.12991958 10.7958399,5.65014216 10.7958399,6.29192171 C10.7958399,6.93370126 10.2821859,7.45392384 9.64856945,7.45392384 C9.01490459,7.45392384 8.50125054,6.93370126 8.50125054,6.29192171 C8.50125054,5.65014216 9.01495302,5.12991958 9.64856945,5.12991958 Z M5.86658206,5.12991958 C6.50024693,5.12991958 7.01390098,5.65014216 7.01390098,6.29192171 C7.01390098,6.93370126 6.50024693,7.45392384 5.86658206,7.45392384 C5.23296563,7.45392384 4.71931158,6.93370126 4.71931158,6.29192171 C4.71931158,5.65014216 5.23296563,5.12991958 5.86658206,5.12991958 Z" id="Shape" fill-rule="nonzero"></path>
                <path d="M2.18621191,9.72727273 C2.18329189,9.80150233 2.18181818,9.87610354 2.18181818,9.95104895 C2.18181818,13.0407538 4.68651888,15.5454545 7.77622378,15.5454545 C10.8659287,15.5454545 13.3706294,13.0407538 13.3706294,9.95104895 C13.3706294,9.87610354 13.3691557,9.80150233 13.3662356,9.72727273 L2.18621191,9.72727273 Z" id="Combined-Shape"></path>
            </g>
        </g>
    </g>
</svg>
