<?xml version="1.0" encoding="UTF-8" standalone="no"?>
<svg width="60px" height="50px" viewBox="0 0 60 50" version="1.1" xmlns="http://www.w3.org/2000/svg" xmlns:xlink="http://www.w3.org/1999/xlink">
    <!-- Generator: Sketch 45.2 (43514) - http://www.bohemiancoding.com/sketch -->
    <title>isotype_cells</title>
    <desc>Created with Sketch.</desc>
    <defs>
        <linearGradient x1="61.2169518%" y1="47.1442308%" x2="21.4170753%" y2="74.698721%" id="linearGradient-1">
            <stop stop-color="#333333" stop-opacity="0" offset="0%"></stop>
            <stop stop-color="#333333" stop-opacity="0.96" offset="100%"></stop>
        </linearGradient>
        <linearGradient x1="92.6220095%" y1="27.2444062%" x2="7.65478764%" y2="76.9141757%" id="linearGradient-2">
            <stop stop-color="#563EA4" offset="0%"></stop>
            <stop stop-color="#224FBD" offset="100%"></stop>
        </linearGradient>
    </defs>
    <g id="Page-1" stroke="none" stroke-width="1" fill="none" fill-rule="evenodd">
        <g id="Logotipos" transform="translate(-1144.000000, -1090.000000)">
            <g id="isotype_cells" transform="translate(1144.000000, 1090.000000)">
                <g id="Layer_2">
                    <g id="Layer_1-2">
                        <g id="symbol">
                            <path d="M20.8233857,24.7878975 C23.3265521,24.7878975 25.3557694,26.8177428 25.3557694,29.3216839 C25.3557694,31.825625 23.3265521,33.8554703 20.8233857,33.8554703 C18.3202192,33.8554703 16.2910019,31.825625 16.2910019,29.3216839 C16.2910019,26.8177428 18.3202192,24.7878975 20.8233857,24.7878975" id="core" fill="#3C47A2"></path>
                            <path d="M36.8745789,2.06299276 C30.9984548,5.45466612 28.034305,12.2941308 29.5764019,18.9027708 L29.5764019,18.9027708 C33.277963,18.8764793 36.5735248,16.5522936 37.8418072,13.0736169 L37.8418072,13.0736169 C38.4201358,11.4622552 39.5538151,10.1099242 41.039256,9.25947912 L41.039256,9.25947912 C42.6981558,8.29265586 44.6745654,8.02922507 46.5286649,8.5278093 C48.3827643,9.02639353 49.9607191,10.2456253 50.9113794,11.914183 L50.9113794,11.914183 C51.8785597,13.5726225 52.1431241,15.5489083 51.6462268,17.4034645 C51.1493295,19.2580206 49.9321754,20.837059 48.2654905,21.7893615 L48.2654905,21.7893615 C46.7880135,22.6463852 45.0539227,22.9496616 43.3733937,22.6449438 L43.3733937,22.6449438 C39.7620416,22.0116365 36.1335686,23.6675204 34.2446772,26.8109097 L34.2446772,26.8109097 C39.1992915,31.2922869 46.4783622,32.0643527 52.2623015,28.7219767 L52.2623015,28.7219767 C57.0152882,25.9769942 59.9457945,20.9064416 59.952166,15.416473 L59.952166,15.416473 L59.952166,15.336512 C59.9447928,12.6543891 59.233638,10.0211993 57.8898115,7.70024041 L57.8898115,7.70024041 C55.1405744,2.93033248 50.0526556,-0.00626555713 44.5484562,5.22092474e-15 L44.5484562,5.22092474e-15 C41.8508937,-0.00104715721 39.200906,0.710616132 36.8665853,2.06299276" id="red-circle" fill="#FF007F"></path>
                            <path d="M29.5764019,18.9027708 C33.277963,18.8764793 36.5735248,16.5522936 37.8418072,13.0736169 C39.1641274,9.50850231 43.0310049,7.58772755 46.6696155,8.68862373 C50.3082261,9.78951992 52.4626618,13.5321002 51.5880401,17.2326702 C50.7134185,20.9332402 47.111625,23.3145061 43.3654001,22.668932 C39.754048,22.0356248 36.125575,23.6915087 34.2366836,26.834898 C39.8698008,31.9384942 48.384056,32.1637597 54.2789977,27.3651666 C60.1739395,22.5665736 61.6836469,14.1816147 57.8328058,7.62721239 C53.9819647,1.07281009 45.9241543,-1.68756301 38.8649496,1.12937276 C31.805745,3.94630853 27.85984,11.4966965 29.5764019,18.9027708 L29.5764019,18.9027708 Z" id="shadow" fill="url(#linearGradient-1)"></path>
                            <path d="M-5.08063237e-15,29.2417229 C-0.0142614931,36.9211253 4.24661353,43.9697832 11.0517461,47.5243474 C17.8568788,51.0789116 26.0743197,50.5481245 32.3659296,46.1476057 C38.6575394,41.7470869 41.976787,34.208808 40.9753071,26.5950152 C40.9753071,26.5950152 40.447728,23.252647 43.0136807,22.5969672 C42.2183378,22.4835669 41.4109369,22.4835669 40.6155941,22.5969672 C40.2718683,22.6449438 40.0640341,22.6929203 40.0640341,22.6929203 C36.2300492,23.5334533 33.3698602,26.7428883 32.9736913,30.6490358 C32.4397623,36.0115945 28.5069731,40.4165288 23.240273,41.550985 C17.9735728,42.6854413 12.5768967,40.2900898 9.88382182,35.6226333 C7.19074698,30.9551767 7.81689364,25.0825666 11.4334974,21.0882741 C15.0501012,17.0939816 20.8304289,15.8910771 25.7394633,18.1111573 C29.3386068,19.7296154 33.5706977,18.8376929 36.2111083,15.9042349 C36.8665802,15.1612997 37.3909764,14.312272 37.761871,13.3934607 C35.7794527,15.0886331 33.1735319,13.0096481 33.1735319,13.0096481 C26.9770036,8.18589416 18.574352,7.31545073 11.5211398,10.766644 C4.46792754,14.2178372 -0.0030853247,21.3874677 -7.36232229e-15,29.2417229 L-5.08063237e-15,29.2417229 Z" id="blue-circle" fill="url(#linearGradient-2)"></path>
                        </g>
                    </g>
                </g>
            </g>
        </g>
    </g>
</svg>